HIERARCHY
ROOT Hips
{
  OFFSET 5.36226 93.4173 -24.2967
  CHANNELS 6 Xposition Yposition Zposition Zrotation Xrotation Yrotation
  JOINT ToSpine
  {
    OFFSET -2.69724 7.43032 -0.144315
    CHANNELS 3 Zrotation Xrotation Yrotation
    JOINT Spine
    {
      OFFSET -0.0310711 10.7595 1.96963
      CHANNELS 3 Zrotation Xrotation Yrotation
      JOINT Spine1
      {
        OFFSET 13.1342 3.43533 0.764692
        CHANNELS 3 Zrotation Xrotation Yrotation
        JOINT Neck
        {
          OFFSET 29.8703 7.82586 -0.130764
          CHANNELS 3 Zrotation Xrotation Yrotation
          JOINT Head
          {
            OFFSET 9.52751 0.295786 -0.907742
            CHANNELS 3 Zrotation Xrotation Yrotation
            End Site
            {
              OFFSET 16.4037 0.713936 2.7358
            }
          }
        }
        JOINT LeftShoulder
        {
          OFFSET 27.5574 4.95586 2.47156
          CHANNELS 3 Zrotation Xrotation Yrotation
          JOINT LeftArm
          {
            OFFSET 1.20734 -0.998971 20.1238
            CHANNELS 3 Zrotation Xrotation Yrotation
            JOINT LeftForeArm
            {
              OFFSET 26.8049 -0.0536703 -0.155908
              CHANNELS 3 Zrotation Xrotation Yrotation
              JOINT LeftHand
              {
                OFFSET 26.6817 0 0.320147
                CHANNELS 3 Zrotation Xrotation Yrotation
                End Site
                {
                  OFFSET 18.6119 0 0.382219
                }
              }
            }
          }
        }
        JOINT RightShoulder
        {
          OFFSET 27.5927 4.71444 -2.65209
          CHANNELS 3 Zrotation Xrotation Yrotation
          JOINT RightArm
          {
            OFFSET 2.83739 -1.17114 -18.7564
            CHANNELS 3 Zrotation Xrotation Yrotation
            JOINT RightForeArm
            {
              OFFSET 28.839 -0.0548439 1.22491
              CHANNELS 3 Zrotation Xrotation Yrotation
              JOINT RightHand
              {
                OFFSET 26.5114 0 -0.101894
                CHANNELS 3 Zrotation Xrotation Yrotation
                End Site
                {
                  OFFSET 18.2168 0 0
                }
              }
            }
          }
        }
      }
    }
  }
  JOINT LeftUpLeg
  {
    OFFSET -4.76168 -1.9167 -10.2353
    CHANNELS 3 Zrotation Xrotation Yrotation
    JOINT LeftLeg
    {
      OFFSET 2.55951 -42.0585 -8.02213
      CHANNELS 3 Zrotation Xrotation Yrotation
      JOINT LeftFoot
      {
        OFFSET 3.16357 -42.5282 -3.95426
        CHANNELS 3 Zrotation Xrotation Yrotation
        JOINT LeftToeBase
        {
          OFFSET 0.346054 -6.02161 12.8035
          CHANNELS 3 Zrotation Xrotation Yrotation
          End Site
          {
            OFFSET 0.134235 -1.35082 5.13018
          }
        }
      }
    }
  }
  JOINT RightUpLeg
  {
    OFFSET -4.94151 -1.41743 10.6446
    CHANNELS 3 Zrotation Xrotation Yrotation
    JOINT RightLeg
    {
      OFFSET -2.56294 -42.0364 -7.94377
      CHANNELS 3 Zrotation Xrotation Yrotation
      JOINT RightFoot
      {
        OFFSET -3.0952 -42.555 -4.02241
        CHANNELS 3 Zrotation Xrotation Yrotation
        JOINT RightToeBase
        {
          OFFSET -0.0828122 -6.13587 12.8035
          CHANNELS 3 Zrotation Xrotation Yrotation
          End Site
          {
            OFFSET -0.131328 -1.35082 5.13018
          }
        }
      }
    }
  }
}
MOTION
Frames:	6
Frame Time:	0.0333333
7.99323 93.5981 -22.6388 70.5249 -40.233 -11.2732 -70.1915 0 88.8779 70.8044 70.6813 12.1686 5.48816 18.8164 6.45059 -123.602 31.2801 160.053 176.634 74.2266 -152.446 0.367441 -15.3083 -23.0825 -63.1991 38.2494 -142.149 23.6924 -4.07494 -98.4543 0.420957 0.000575941 0.358661 -1.47801 7.48911 34.1582 -136.389 -17.3591 95.6106 33.8226 1.0291 91.2796 1.90515 0.00982833 0.418258 -50.4469 13.5285 98.3479 -2.57992 42.5411 -4.41804 1.51216 -14.626 -1.25598 1.91177 -6.9651 10.1723 -44.8641 -11.1515 81.1092 0.676141 28.7531 6.60212 -0.253355 0.519555 0.138984 0.256379 -4.95297 2.73617 
7.93861 93.6004 -22.6122 70.4613 -40.3586 -11.3448 -70.1915 0 88.8779 70.9315 70.7616 11.9864 5.33013 18.868 6.48193 -123.533 31.2831 159.881 175.684 74.2298 -151.58 0.381138 -15.2323 -23.0172 -63.197 38.3781 -142.114 24.0067 -4.09121 -98.3569 0.420957 0.000575941 0.358661 -1.48211 7.44811 34.3345 -136.095 -17.0827 95.8691 33.3479 1.04 91.3221 1.9252 0.00985092 0.442151 -50.4186 13.6702 98.5023 -2.65548 42.6495 -4.9389 0.886779 -14.6895 -1.26231 2.04536 -7.38845 11.0528 -44.8535 -11.017 81.2155 0.665814 28.6209 6.07416 -1.65519 0.938191 0.30367 0.58848 -6.90893 2.29357 
7.89125 93.6284 -22.6127 70.2822 -40.1131 -11.2662 -70.1915 0 88.8779 69.8773 70.7347 13.192 5.34162 19.0294 6.24175 -121.166 30.6741 157.413 179.709 74.747 -153.28 0.232198 -16.2018 -23.3629 -64.2171 38.1736 -140.886 25.5784 -4.1039 -97.7692 0.420957 0.000575941 0.358661 -1.54338 7.28858 35.6755 -135.659 -15.2445 96.8282 32.4137 0.871057 91.1201 1.93704 0.00986416 0.552299 -49.9163 13.7245 98.0769 -2.74981 43.0182 -5.36803 -0.551497 -15.1028 -1.29791 1.67005 -6.98253 12.033 -44.8299 -10.7775 81.3939 0.69384 28.5924 5.81698 -3.26991 1.54497 0.494371 0.80003 -8.22289 2.03841 
7.8949 93.6166 -22.5972 70.2461 -40.0755 -11.2838 -70.1915 0 88.8779 70.0682 70.635 13.2544 5.25483 19.0748 5.80873 -120.813 30.3745 156.708 -178.317 74.7995 -155.244 0.25755 -16.1445 -23.049 -63.8447 38.1499 -141.08 24.4627 -3.95445 -97.8824 0.420957 0.000575941 0.358661 -1.59603 7.28024 36.4264 -135.558 -14.7985 97.226 32.4887 0.846383 91.0781 1.92127 0.00984634 0.579969 -49.8749 13.7432 98.0925 -2.73335 43.0084 -5.23338 -0.51038 -14.9283 -1.28309 1.95974 -7.37221 11.613 -44.7197 -10.8054 81.4803 0.6774 28.7367 5.49436 -2.87743 1.2818 0.452513 0.614737 -7.54144 2.92168 
7.88788 93.6126 -22.5902 70.336 -40.0858 -11.3013 -70.1915 0 88.8779 70.6172 70.6478 12.5854 5.00962 19.0367 5.83277 -120.797 30.286 156.658 -178.075 74.7448 -155.574 0.2968 -15.9685 -22.7458 -63.5099 38.1501 -141.302 25.0762 -3.96925 -97.6804 0.420957 0.000575941 0.358661 -1.61289 7.23278 36.8154 -135.403 -14.7494 97.4981 32.8451 0.834589 91.0429 1.90653 0.00982974 0.551464 -50.0104 13.6095 98.0296 -2.77297 42.9859 -5.59946 -0.596827 -14.834 -1.27536 2.06754 -7.74445 12.5313 -44.8386 -10.8897 81.4503 0.697528 28.67 5.2769 -3.7068 1.33814 0.567005 0.672964 -8.14479 3.29598 
7.91421 93.6099 -22.6017 70.3352 -40.0168 -11.3349 -70.1915 0 88.8779 70.8058 70.6298 12.451 4.86758 19.0434 5.71957 -120.611 30.2386 156.525 -178.127 74.7604 -155.482 0.285745 -16.0305 -22.8022 -63.6803 37.8902 -141.146 23.834 -3.89774 -98.0086 0.420957 0.000575941 0.358661 -1.57527 7.12973 36.6328 -135.551 -15.1558 97.1783 32.6924 0.871102 91.1057 1.94802 0.0098765 0.594175 -49.9286 13.5719 98.0553 -2.76062 43.07 -5.39925 -0.789254 -15.2013 -1.30843 1.64728 -6.96175 12.111 -44.8246 -10.8205 81.6685 0.622472 28.7273 5.82412 -4.02941 1.43025 0.608524 0.82991 -8.43773 2.03124 
